<?xml version="1.0" encoding="utf-8"?>
<!-- Generator: Adobe Illustrator 24.1.3, SVG Export Plug-In . SVG Version: 6.00 Build 0)  -->
<svg version="1.1" id="Calque_1" xmlns="http://www.w3.org/2000/svg" xmlns:xlink="http://www.w3.org/1999/xlink" x="0px" y="0px"
	 viewBox="0 0 1836 3033" style="enable-background:new 0 0 1836 3033;" xml:space="preserve">
<style type="text/css">
	.st0{display:none;}
	.st1{display:inline;}
	.st2{fill:none;stroke:#FFFFFF;stroke-width:0.5;stroke-miterlimit:10;}
	.st3{fill:none;stroke:#FFFFFF;stroke-width:0.75;stroke-miterlimit:10;}
	.st4{fill:#F7C6C6;}
</style>
<g class="st0">
	<rect x="-32" y="-29" class="st1" width="1896" height="3072"/>
</g>
<g>
	<path class="st2" d="M1273.5,3042.5"/>
	<path class="st2" d="M1273.5-40.5"/>
	<path class="st2" d="M1397.5,3043"/>
	<path class="st2" d="M1397.5-40"/>
	<line class="st2" x1="1284.5" y1="-39" x2="1284.5" y2="3044"/>
	<line class="st2" x1="1406.5" y1="-39" x2="1406.5" y2="3044"/>
	<path class="st2" d="M1335.5,3043"/>
	<path class="st2" d="M1335.5-40"/>
	<path class="st2" d="M1460.5,3043"/>
	<path class="st2" d="M1460.5-40"/>
	<line class="st2" x1="1345.5" y1="-38" x2="1345.5" y2="3045"/>
	<line class="st2" x1="1467.5" y1="-40" x2="1467.5" y2="3043"/>
	<path class="st2" d="M1614.5,3043"/>
	<path class="st2" d="M1738.5,3043"/>
	<path class="st2" d="M2453.5,3042"/>
	<path class="st2" d="M2453.5-41"/>
	<path class="st2" d="M1832.5,3043"/>
	<path class="st2" d="M1832.5-40"/>
</g>
<g>
	<line class="st3" x1="0.5" y1="-39.5" x2="0.5" y2="3043.33"/>
	<line class="st3" x1="122.5" y1="-39" x2="122.5" y2="3043.83"/>
	<line class="st3" x1="246.19" y1="-39" x2="246.19" y2="3043.83"/>
	<line class="st3" x1="369.19" y1="-39" x2="369.19" y2="3043.83"/>
	<line class="st3" x1="491.19" y1="-39" x2="491.19" y2="3043.83"/>
	<line class="st3" x1="613.19" y1="-39" x2="613.19" y2="3043.83"/>
	<line class="st3" x1="735.19" y1="-39" x2="735.19" y2="3043.83"/>
	<line class="st3" x1="857.5" y1="-40" x2="857.5" y2="3042.83"/>
	<line class="st3" x1="979.5" y1="-40" x2="979.5" y2="3042.83"/>
	<line class="st3" x1="1101.5" y1="-40" x2="1101.5" y2="3042.83"/>
	<line class="st3" x1="1162.5" y1="-39" x2="1162.5" y2="3043.83"/>
</g>
<g>
	<line class="st3" x1="61.5" y1="-40.5" x2="61.5" y2="3042.33"/>
	<line class="st3" x1="184.5" y1="-40" x2="184.5" y2="3042.83"/>
	<line class="st3" x1="308.19" y1="-40" x2="308.19" y2="3042.83"/>
	<line class="st3" x1="430.19" y1="-40" x2="430.19" y2="3042.83"/>
	<line class="st3" x1="552.19" y1="-40" x2="552.19" y2="3042.83"/>
	<line class="st3" x1="674.5" y1="-40" x2="674.5" y2="3042.83"/>
	<line class="st3" x1="796.5" y1="-40" x2="796.5" y2="3042.83"/>
	<line class="st3" x1="918.5" y1="-41" x2="918.5" y2="3041.83"/>
	<line class="st3" x1="1040.5" y1="-40" x2="1040.5" y2="3042.83"/>
	<path class="st3" d="M1176.19,3041.83"/>
	<path class="st3" d="M1176.19-41"/>
	<line class="st3" x1="1223.5" y1="-40" x2="1223.5" y2="3042.83"/>
</g>
<g>
	<line class="st2" x1="-29.03" y1="-0.12" x2="1927" y2="-0.12"/>
	<line class="st2" x1="-29.74" y1="123.88" x2="1926.28" y2="123.88"/>
	<line class="st2" x1="-29.74" y1="247.88" x2="1926.28" y2="247.88"/>
	<line class="st2" x1="-29.74" y1="371.88" x2="1926.28" y2="371.88"/>
	<line class="st2" x1="-31.17" y1="495.88" x2="1924.85" y2="495.88"/>
	<line class="st2" x1="-31.17" y1="619.88" x2="1924.85" y2="619.88"/>
	<line class="st2" x1="-31.17" y1="743.88" x2="1924.85" y2="743.88"/>
	<line class="st2" x1="-31.17" y1="867.88" x2="1924.85" y2="867.88"/>
	<line class="st2" x1="-29.74" y1="991.88" x2="1926.28" y2="991.88"/>
	<line class="st2" x1="-29.74" y1="1115.88" x2="1926.28" y2="1115.88"/>
	<line class="st2" x1="-29.74" y1="1239.88" x2="1926.28" y2="1239.88"/>
	<line class="st2" x1="-29.74" y1="1363.88" x2="1926.28" y2="1363.88"/>
	<line class="st2" x1="-29.74" y1="1487.88" x2="1926.28" y2="1487.88"/>
	<line class="st2" x1="-29.74" y1="1611.5" x2="1926.28" y2="1611.5"/>
	<line class="st2" x1="-29.74" y1="1734.88" x2="1926.28" y2="1734.88"/>
	<line class="st2" x1="-29.74" y1="1858.5" x2="1926.28" y2="1858.5"/>
	<line class="st2" x1="-29.74" y1="1982.88" x2="1926.28" y2="1982.88"/>
	<line class="st2" x1="-29.74" y1="2106.88" x2="1926.28" y2="2106.88"/>
	<line class="st2" x1="-29.74" y1="2230.88" x2="1926.28" y2="2230.88"/>
	<line class="st2" x1="-30.74" y1="2354.5" x2="1925.28" y2="2354.5"/>
	<line class="st2" x1="-29.74" y1="2476.88" x2="1926.28" y2="2476.88"/>
	<line class="st2" x1="-29.74" y1="2600.88" x2="1926.28" y2="2600.88"/>
	<line class="st2" x1="-29.74" y1="2723.88" x2="1926.28" y2="2723.88"/>
	<line class="st2" x1="-39.77" y1="2847.88" x2="1916.26" y2="2847.88"/>
</g>
<g>
	<line class="st2" x1="-29.02" y1="61.88" x2="1928" y2="61.88"/>
	<line class="st2" x1="-29.74" y1="185.88" x2="1927.28" y2="185.88"/>
	<line class="st2" x1="-29.74" y1="309.88" x2="1927.28" y2="309.88"/>
	<line class="st2" x1="-29.74" y1="433.88" x2="1927.28" y2="433.88"/>
	<line class="st2" x1="-31.17" y1="557.88" x2="1925.85" y2="557.88"/>
	<line class="st2" x1="-31.17" y1="681.88" x2="1925.85" y2="681.88"/>
	<line class="st2" x1="-31.17" y1="805.88" x2="1925.85" y2="805.88"/>
	<line class="st2" x1="-31.17" y1="929.88" x2="1925.85" y2="929.88"/>
	<line class="st2" x1="-29.74" y1="1053.88" x2="1927.28" y2="1053.88"/>
	<line class="st2" x1="-29.74" y1="1177.88" x2="1927.28" y2="1177.88"/>
	<line class="st2" x1="-29.74" y1="1301.88" x2="1927.28" y2="1301.88"/>
	<line class="st2" x1="-29.74" y1="1425.88" x2="1927.28" y2="1425.88"/>
	<line class="st2" x1="-29.74" y1="1549.88" x2="1927.28" y2="1549.88"/>
	<line class="st2" x1="-29.74" y1="1673.5" x2="1927.28" y2="1673.5"/>
	<line class="st2" x1="-29.74" y1="1796.88" x2="1927.28" y2="1796.88"/>
	<line class="st2" x1="-29.74" y1="1920.88" x2="1927.28" y2="1920.88"/>
	<line class="st2" x1="-29.74" y1="2044.88" x2="1927.28" y2="2044.88"/>
	<line class="st2" x1="-29.74" y1="2168.88" x2="1927.28" y2="2168.88"/>
	<line class="st2" x1="-29.74" y1="2292.88" x2="1927.28" y2="2292.88"/>
	<line class="st2" x1="-29.74" y1="2415.5" x2="1927.28" y2="2415.5"/>
	<line class="st2" x1="-29.74" y1="2538.88" x2="1927.28" y2="2538.88"/>
	<line class="st2" x1="-29.74" y1="2662.5" x2="1927.28" y2="2662.5"/>
	<line class="st2" x1="-29.74" y1="2785.88" x2="1927.28" y2="2785.88"/>
	<line class="st2" x1="-39.77" y1="2909.88" x2="1917.26" y2="2909.88"/>
</g>
<g>
	<line class="st3" x1="-30.02" y1="2971.88" x2="1563" y2="2971.88"/>
	<line class="st3" x1="-36.6" y1="3033.5" x2="1556.42" y2="3033.5"/>
	<line class="st3" x1="-30.6" y1="3218.88" x2="1562.42" y2="3218.88"/>
	<line class="st3" x1="-30.6" y1="3342.88" x2="1562.42" y2="3342.88"/>
	<line class="st3" x1="-31.77" y1="3466.88" x2="1561.25" y2="3466.88"/>
	<line class="st3" x1="-31.77" y1="3590.88" x2="1561.25" y2="3590.88"/>
	<line class="st3" x1="-31.77" y1="3715.88" x2="1561.25" y2="3715.88"/>
	<line class="st3" x1="-31.77" y1="3839.88" x2="1561.25" y2="3839.88"/>
	<line class="st3" x1="-30.6" y1="3963.88" x2="1562.42" y2="3963.88"/>
	<line class="st3" x1="-30.6" y1="4087.88" x2="1562.42" y2="4087.88"/>
	<line class="st3" x1="-30.6" y1="4211.88" x2="1562.42" y2="4211.88"/>
	<line class="st3" x1="-30.6" y1="4335.88" x2="1562.42" y2="4335.88"/>
	<line class="st3" x1="-30.6" y1="4460.88" x2="1562.42" y2="4460.88"/>
	<line class="st3" x1="-30.6" y1="4585.88" x2="1562.42" y2="4585.88"/>
	<line class="st3" x1="-30.6" y1="4708.88" x2="1562.42" y2="4708.88"/>
	<line class="st3" x1="-30.6" y1="4832.88" x2="1562.42" y2="4832.88"/>
	<line class="st3" x1="-30.6" y1="4956.88" x2="1562.42" y2="4956.88"/>
	<line class="st3" x1="-30.6" y1="5081.88" x2="1562.42" y2="5081.88"/>
	<line class="st3" x1="-30.6" y1="5205.88" x2="1562.42" y2="5205.88"/>
	<line class="st3" x1="-30.6" y1="5329.88" x2="1562.42" y2="5329.88"/>
	<line class="st3" x1="-30.6" y1="5453.88" x2="1562.42" y2="5453.88"/>
	<line class="st3" x1="-30.6" y1="5577.88" x2="1562.42" y2="5577.88"/>
	<line class="st3" x1="-30.6" y1="5701.88" x2="1562.42" y2="5701.88"/>
	<line class="st3" x1="-38.77" y1="5825.88" x2="1554.25" y2="5825.88"/>
</g>
<g>
	<path class="st2" d="M1520.45,3044.28"/>
	<path class="st2" d="M1520.45-38.72"/>
	<path class="st2" d="M1644.45,3044.78"/>
	<path class="st2" d="M1644.45-38.21"/>
	<line class="st2" x1="1528.5" y1="-37.21" x2="1528.5" y2="3045.78"/>
	<line class="st2" x1="1650.5" y1="-37.21" x2="1650.5" y2="3045.78"/>
	<path class="st2" d="M1582.45,3044.78"/>
	<path class="st2" d="M1582.45-38.21"/>
	<path class="st2" d="M1707.45,3044.78"/>
	<path class="st2" d="M1707.45-38.21"/>
	<line class="st2" x1="1589.5" y1="-37.21" x2="1589.5" y2="3045.78"/>
	<line class="st2" x1="1712.5" y1="-38.22" x2="1712.5" y2="3044.78"/>
	<path class="st2" d="M1861.45,3044.78"/>
	<path class="st2" d="M1985.45,3044.78"/>
	<path class="st2" d="M2700.45,3043.78"/>
	<path class="st2" d="M2700.45-39.22"/>
	<path class="st2" d="M2079.45,3044.78"/>
	<path class="st2" d="M2079.45-38.22"/>
</g>
<g>
	<path class="st2" d="M1741.06,3046.82"/>
	<path class="st2" d="M1741.06-36.17"/>
	<path class="st2" d="M1865.06,3047.33"/>
	<path class="st2" d="M1865.06-35.67"/>
	<line class="st2" x1="1774.06" y1="-35.67" x2="1774.06" y2="3047.33"/>
	<path class="st2" d="M1897.06,3047.33"/>
	<path class="st2" d="M1803.06,3047.33"/>
	<path class="st2" d="M1803.06-35.67"/>
	<path class="st2" d="M1928.06,3047.33"/>
	<path class="st2" d="M1958.06,3047.32"/>
	<path class="st2" d="M2082.06,3047.32"/>
	<path class="st2" d="M2206.06,3047.32"/>
	<path class="st2" d="M2921.06,3046.32"/>
	<path class="st2" d="M2921.06-36.67"/>
	<path class="st2" d="M2300.06,3047.32"/>
	<path class="st2" d="M2300.06-35.67"/>
</g>
<rect x="-114" y="2980" class="st4" width="62" height="62"/>
</svg>
